<?xml version="1.0" encoding="utf-8"?>
<!-- Generator: Adobe Illustrator 19.1.0, SVG Export Plug-In . SVG Version: 6.00 Build 0)  -->
<svg version="1.1" id="Layer_1" xmlns="http://www.w3.org/2000/svg" xmlns:xlink="http://www.w3.org/1999/xlink" x="0px" y="0px"
	 viewBox="0 0 137 38" enable-background="new 0 0 137 38" xml:space="preserve">
<g>
	<path fill="#333333" d="M13.7,28.1l0.3,1.4h0.2l0.3-1.3l6.2-27.6h7.6l-10.3,37h-7.5L0,0.5h7.6L13.7,28.1z"/>
	<path fill="#333333" d="M47.6,22.1H35v15.4h-7.2v-37h22v5.8H35v10.1h12.5V22.1z"/>
	<path fill="#333333" d="M76.7,28.5c0-2-0.6-3.7-1.8-4.9c-1.2-1.3-3.2-2.4-6.2-3.4c-3.4-1-5.9-2.4-7.7-4c-1.7-1.6-2.6-3.8-2.6-6.6
		c0-2.8,1-5.1,2.9-6.9C63.3,0.9,65.8,0,68.9,0c3.2,0,5.8,1.1,7.8,3.2c2,2.1,2.9,4.7,2.9,7.7l-0.1,0.2h-2.9c0-2.5-0.7-4.5-2-6
		c-1.4-1.6-3.2-2.3-5.6-2.3c-2.3,0-4.1,0.7-5.4,2c-1.3,1.3-1.9,2.9-1.9,4.9c0,1.8,0.6,3.4,1.9,4.6s3.4,2.3,6.3,3.3
		c3.3,1,5.8,2.4,7.5,4.1c1.7,1.7,2.6,4,2.6,6.8c0,3-1,5.3-3,7c-2,1.7-4.6,2.6-7.7,2.6c-3.1,0-5.8-0.9-8.1-2.8
		c-2.3-1.9-3.4-4.6-3.3-8.1l0.1-0.2h2.8c0,2.9,0.8,5,2.5,6.4c1.7,1.4,3.7,2.1,6,2.1c2.3,0,4.2-0.6,5.6-1.9
		C76,32.3,76.7,30.6,76.7,28.5z"/>
	<path fill="#333333" d="M96.1,37.5c-0.2-0.9-0.3-1.7-0.3-2.3s-0.1-1.2-0.1-1.9c-0.8,1.4-1.9,2.5-3.2,3.4C91.1,37.6,89.6,38,88,38
		c-2.3,0-4-0.7-5.3-2.1c-1.2-1.4-1.9-3.3-1.9-5.7c0-2.6,0.9-4.6,2.7-6.1c1.8-1.5,4.2-2.3,7.3-2.3h4.8v-3.4c0-1.9-0.5-3.5-1.5-4.6
		c-1-1.1-2.4-1.7-4.1-1.7c-1.6,0-3,0.5-4,1.6c-1.1,1-1.6,2.3-1.6,3.9l-2.8,0l-0.1-0.2c-0.1-2.1,0.7-3.9,2.3-5.5
		c1.7-1.6,3.8-2.4,6.3-2.4c2.5,0,4.6,0.8,6.1,2.3c1.6,1.5,2.3,3.8,2.3,6.6V32c0,1,0,1.9,0.1,2.8c0.1,0.9,0.2,1.8,0.5,2.7H96.1z
		 M88.4,35.3c1.7,0,3.2-0.5,4.5-1.5c1.3-1,2.2-2.2,2.8-3.7v-5.9h-4.9c-2.1,0-3.7,0.6-5,1.8c-1.2,1.2-1.9,2.6-1.9,4.4
		c0,1.5,0.4,2.7,1.2,3.6C85.9,34.8,87,35.3,88.4,35.3z"/>
	<path fill="#333333" d="M115.5,31c0-1.3-0.4-2.3-1.2-3.3c-0.8-0.9-2.3-1.9-4.5-2.9c-2.8-1.2-4.8-2.3-6.1-3.5s-1.9-2.8-1.9-4.7
		c0-2,0.8-3.6,2.3-5c1.5-1.4,3.5-2.1,6-2.1c2.6,0,4.7,0.8,6.2,2.3c1.5,1.5,2.3,3.5,2.2,5.8l-0.1,0.2h-2.9c0-1.5-0.5-2.8-1.5-3.9
		c-1-1.1-2.3-1.7-4-1.7c-1.7,0-3,0.4-3.9,1.3c-0.9,0.9-1.3,1.9-1.3,3c0,1.2,0.4,2.2,1.1,2.9s2.2,1.7,4.6,2.8
		c2.7,1.1,4.8,2.3,6.1,3.6c1.4,1.3,2,2.9,2,4.9c0,2.2-0.8,3.9-2.3,5.3c-1.6,1.3-3.6,2-6.2,2c-2.8,0-5-0.8-6.6-2.4
		c-1.6-1.6-2.4-3.5-2.3-5.7l0.1-0.2h2.8c0.1,2,0.7,3.4,1.9,4.3c1.2,0.9,2.5,1.3,4.1,1.3c1.7,0,3.1-0.4,4-1.3
		C115,33.3,115.5,32.2,115.5,31z"/>
	<path fill="#333333" d="M134,31c0-1.3-0.4-2.3-1.2-3.3c-0.8-0.9-2.3-1.9-4.5-2.9c-2.8-1.2-4.8-2.3-6.1-3.5s-1.9-2.8-1.9-4.7
		c0-2,0.8-3.6,2.3-5c1.5-1.4,3.5-2.1,6-2.1c2.6,0,4.7,0.8,6.2,2.3c1.5,1.5,2.3,3.5,2.2,5.8l-0.1,0.2h-2.9c0-1.5-0.5-2.8-1.5-3.9
		c-1-1.1-2.3-1.7-4-1.7c-1.7,0-3,0.4-3.9,1.3c-0.9,0.9-1.3,1.9-1.3,3c0,1.2,0.4,2.2,1.1,2.9s2.2,1.7,4.6,2.8
		c2.7,1.1,4.8,2.3,6.1,3.6c1.4,1.3,2,2.9,2,4.9c0,2.2-0.8,3.9-2.3,5.3c-1.6,1.3-3.6,2-6.2,2c-2.8,0-5-0.8-6.6-2.4
		c-1.6-1.6-2.4-3.5-2.3-5.7l0.1-0.2h2.8c0.1,2,0.7,3.4,1.9,4.3c1.2,0.9,2.5,1.3,4.1,1.3c1.7,0,3.1-0.4,4-1.3
		C133.5,33.3,134,32.2,134,31z"/>
</g>
</svg>
